<svg width="25" height="25" viewBox="0 0 25 25" fill="none" xmlns="http://www.w3.org/2000/svg">
<g clip-path="url(#clip0_624_1878)">
<mask id="mask0_624_1878" style="mask-type:luminance" maskUnits="userSpaceOnUse" x="0" y="0" width="25" height="24">
<path d="M0.5 0.00756836H24.0302V23.6076H0.5V0.00756836Z" fill="white"/>
</mask>
<g mask="url(#mask0_624_1878)">
<path fill-rule="evenodd" clip-rule="evenodd" d="M12.2651 0.00756836C9.0699 0.00756836 8.66925 0.0211536 7.41437 0.0785866C6.16211 0.135879 5.30686 0.335395 4.55852 0.627151C3.78486 0.928698 3.12874 1.33223 2.47464 1.9883C1.82058 2.64443 1.4183 3.30256 1.11768 4.07861C0.826818 4.82927 0.627916 5.68716 0.5708 6.94328C0.513543 8.20203 0.5 8.60392 0.5 11.809C0.5 15.0141 0.513543 15.416 0.5708 16.6747C0.627916 17.9308 0.826818 18.7887 1.11768 19.5394C1.4183 20.3154 1.82058 20.9736 2.47464 21.6297C3.12874 22.2858 3.78486 22.6893 4.55852 22.9909C5.30686 23.2826 6.16211 23.4821 7.41437 23.5394C8.66925 23.5968 9.0699 23.6104 12.2651 23.6104C15.4603 23.6104 15.861 23.5968 17.1159 23.5394C18.3681 23.4821 19.2234 23.2826 19.9717 22.9909C20.7454 22.6893 21.4015 22.2858 22.0556 21.6297C22.7096 20.9736 23.1119 20.3154 23.4126 19.5394C23.7034 18.7887 23.9023 17.9308 23.9594 16.6747C24.0167 15.416 24.0302 15.0141 24.0302 11.809C24.0302 8.60392 24.0167 8.20203 23.9594 6.94328C23.9023 5.68716 23.7034 4.82927 23.4126 4.07861C23.1119 3.30256 22.7096 2.64443 22.0556 1.9883C21.4015 1.33223 20.7454 0.928698 19.9717 0.627151C19.2234 0.335395 18.3681 0.135879 17.1159 0.0785866C15.861 0.0211536 15.4603 0.00756836 12.2651 0.00756836ZM12.2651 2.13395C15.4065 2.13395 15.7786 2.14599 17.0192 2.20276C18.1663 2.25523 18.7893 2.44749 19.2038 2.6091C19.753 2.82319 20.1449 3.07892 20.5566 3.49191C20.9683 3.90486 21.2233 4.29799 21.4367 4.84885C21.5978 5.2647 21.7895 5.88958 21.8418 7.04021C21.8984 8.28462 21.9104 8.65789 21.9104 11.809C21.9104 14.9601 21.8984 15.3334 21.8418 16.5778C21.7895 17.7284 21.5978 18.3533 21.4367 18.7691C21.2233 19.32 20.9683 19.7131 20.5566 20.1261C20.1449 20.5391 19.753 20.7948 19.2038 21.0089C18.7893 21.1705 18.1663 21.3628 17.0192 21.4152C15.7788 21.472 15.4068 21.484 12.2651 21.484C9.12347 21.484 8.75144 21.472 7.511 21.4152C6.36391 21.3628 5.74096 21.1705 5.32639 21.0089C4.77722 20.7948 4.3853 20.5391 3.97362 20.1261C3.56195 19.7131 3.30696 19.32 3.09353 18.7691C2.93241 18.3533 2.74075 17.7284 2.68844 16.5778C2.63184 15.3334 2.61984 14.9601 2.61984 11.809C2.61984 8.65789 2.63184 8.28462 2.68844 7.04021C2.74075 5.88958 2.93241 5.2647 3.09353 4.84885C3.30696 4.29799 3.5619 3.90486 3.97362 3.49191C4.3853 3.07892 4.77722 2.82319 5.32639 2.6091C5.74096 2.44749 6.36391 2.25523 7.511 2.20276C8.75158 2.14599 9.1237 2.13395 12.2651 2.13395Z" fill="white"/>
</g>
<path fill-rule="evenodd" clip-rule="evenodd" d="M12.2652 15.7428C10.0993 15.7428 8.34347 13.9816 8.34347 11.809C8.34347 9.63637 10.0993 7.87516 12.2652 7.87516C14.4311 7.87516 16.1869 9.63637 16.1869 11.809C16.1869 13.9816 14.4311 15.7428 12.2652 15.7428ZM12.2652 5.74878C8.9285 5.74878 6.22363 8.462 6.22363 11.809C6.22363 15.1559 8.9285 17.8692 12.2652 17.8692C15.6018 17.8692 18.3067 15.1559 18.3067 11.809C18.3067 8.462 15.6018 5.74878 12.2652 5.74878Z" fill="white"/>
<path fill-rule="evenodd" clip-rule="evenodd" d="M19.9572 5.50946C19.9572 6.2916 19.3251 6.92561 18.5453 6.92561C17.7657 6.92561 17.1335 6.2916 17.1335 5.50946C17.1335 4.72732 17.7657 4.09326 18.5453 4.09326C19.3251 4.09326 19.9572 4.72732 19.9572 5.50946Z" fill="white"/>
</g>
<defs>
<clipPath id="clip0_624_1878">
<rect width="24" height="25" fill="white" transform="translate(0.5)"/>
</clipPath>
</defs>
</svg>
