<svg width="26" height="25" viewBox="0 0 26 25" fill="none" xmlns="http://www.w3.org/2000/svg">
<g clip-path="url(#clip0_624_1901)">
<mask id="mask0_624_1901" style="mask-type:luminance" maskUnits="userSpaceOnUse" x="0" y="0" width="26" height="25">
<path d="M0.547119 0H25.0661V24.5183H0.547119V0Z" fill="white"/>
</mask>
<g mask="url(#mask0_624_1901)">
<path fill-rule="evenodd" clip-rule="evenodd" d="M21.4388 20.8924H17.8053V15.2028C17.8053 13.8461 17.7795 12.1005 15.9161 12.1005C14.0227 12.1005 13.7339 13.5784 13.7339 15.1047V20.8924H10.1018V9.19235H13.5882V10.7908H13.6379C14.1228 9.87069 15.3099 8.90086 17.0793 8.90086C20.7584 8.90086 21.4388 11.3234 21.4388 14.4747V20.8924ZM6.00178 7.59253C4.83307 7.59253 3.89184 6.64721 3.89184 5.48326C3.89184 4.32068 4.83307 3.37536 6.00178 3.37536C7.16504 3.37536 8.10968 4.32068 8.10968 5.48326C8.10968 6.64721 7.16504 7.59253 6.00178 7.59253ZM4.18061 20.8924H7.82091V9.19235H4.18061V20.8924ZM23.2498 0H2.35535C1.35827 0 0.547119 0.791399 0.547119 1.76669V22.7497C0.547119 23.7256 1.35827 24.5184 2.35535 24.5184H23.2498C24.2496 24.5184 25.0662 23.7256 25.0662 22.7497V1.76669C25.0662 0.791399 24.2496 0 23.2498 0Z" fill="white"/>
</g>
</g>
<defs>
<clipPath id="clip0_624_1901">
<rect width="25" height="25" fill="white" transform="translate(0.5)"/>
</clipPath>
</defs>
</svg>
