<svg width="36" height="25" viewBox="0 0 36 25" fill="none" xmlns="http://www.w3.org/2000/svg">
<g clip-path="url(#clip0_624_1911)">
<mask id="mask0_624_1911" style="mask-type:luminance" maskUnits="userSpaceOnUse" x="1" y="0" width="35" height="25">
<path d="M1.31641 0.281494H35.3227V24.2118H1.31641V0.281494Z" fill="white"/>
</mask>
<g mask="url(#mask0_624_1911)">
<path fill-rule="evenodd" clip-rule="evenodd" d="M34.6121 4.01826C34.2211 2.54736 33.0686 1.3891 31.6055 0.995979C28.9535 0.281494 18.3195 0.281494 18.3195 0.281494C18.3195 0.281494 7.6855 0.281494 5.0335 0.995979C3.57035 1.3891 2.4179 2.54736 2.02685 4.01826C1.31641 6.68428 1.31641 12.2468 1.31641 12.2468C1.31641 12.2468 1.31641 17.8093 2.02685 20.4751C2.4179 21.946 3.57035 23.1045 5.0335 23.4976C7.6855 24.2121 18.3195 24.2121 18.3195 24.2121C18.3195 24.2121 28.9535 24.2121 31.6055 23.4976C33.0686 23.1045 34.2211 21.946 34.6121 20.4751C35.3229 17.8093 35.3229 12.2468 35.3229 12.2468C35.3229 12.2468 35.3229 6.68428 34.6121 4.01826Z" fill="white"/>
</g>
<path fill-rule="evenodd" clip-rule="evenodd" d="M14.9189 17.3747L23.7539 12.2467L14.9189 7.11865V17.3747Z" fill="black"/>
</g>
<defs>
<clipPath id="clip0_624_1911">
<rect width="35" height="25" fill="white" transform="translate(0.5)"/>
</clipPath>
</defs>
</svg>
