<svg width="33" height="33" viewBox="0 0 33 33" fill="none" xmlns="http://www.w3.org/2000/svg">
<g id="Layer_1">
<g id="Lawn_Mower">
<g id="Group">
<path id="Vector" d="M27.837 4.04487L26.7883 4.74945C26.1512 5.17737 25.6833 5.81945 25.4712 6.55695L23.4659 13.5336C22.7358 13.1274 21.9258 12.8738 21.0408 12.7761C20.4371 12.7094 19.8237 12.7183 19.2112 12.7834V11.5778H21.1479C21.5554 11.5778 21.8866 11.2465 21.8866 10.839V9.16612C21.8866 8.75862 21.5554 8.42737 21.1479 8.42737H17.9779C16.83 8.42737 15.8962 9.36112 15.8962 10.509V11.2578C15.8962 11.4345 16.0395 11.5778 16.2162 11.5778H18.5712V12.8725C14.751 13.5193 11.1213 16.1909 10.3196 16.8117C8.56677 16.0533 6.59912 17.3455 6.59912 19.259C6.59912 20.729 7.79495 21.9249 9.26495 21.9249C10.2104 21.9249 11.0403 21.4287 11.5138 20.6846C11.6502 20.751 10.8776 20.7044 23.3524 20.719C23.9633 21.3539 24.8194 21.7511 25.7679 21.7511C27.6187 21.7511 29.1241 20.2457 29.1241 18.3949C29.1241 16.3997 27.3636 14.7827 25.2962 15.0758C25.1668 14.9211 25.0342 14.7723 24.8964 14.6328C25.0742 14.6713 25.2227 14.5658 25.2687 14.4199L27.2875 8.04362C27.4583 7.50445 27.8062 7.02695 28.2666 6.69862L28.9958 6.17903C30.3953 5.42898 29.3042 3.29237 27.837 4.04487ZM16.5362 10.509C16.5362 9.71403 17.1829 9.06737 17.9779 9.06737H21.1479C21.2025 9.06737 21.2466 9.11153 21.2466 9.16612V10.839C21.2466 10.8936 21.2025 10.9378 21.1479 10.9378H16.5362V10.509ZM9.26495 21.2849C8.14787 21.2849 7.23912 20.3761 7.23912 19.259C7.23912 18.1419 8.14787 17.2332 9.26495 17.2332C10.382 17.2332 11.2908 18.1419 11.2908 19.259C11.2908 20.3761 10.382 21.2849 9.26495 21.2849ZM11.8004 20.079C11.9422 19.6419 11.9637 19.2139 11.886 18.7844C23.0455 18.7743 22.309 18.8052 22.4336 18.7649C22.486 19.2401 22.6395 19.6843 22.8697 20.079H11.8004ZM28.4841 18.3949C28.4841 19.8928 27.2658 21.1111 25.7679 21.1111C24.2704 21.1111 23.052 19.8928 23.052 18.3949C23.052 16.8969 24.2704 15.6786 25.7679 15.6786C27.2658 15.6786 28.4841 16.8969 28.4841 18.3949ZM22.4238 18.1621C22.2994 18.126 23.1615 18.1546 11.7754 18.1444C11.7457 18.1444 11.7189 18.1538 11.6916 18.1614C11.5141 17.7706 11.2458 17.4305 10.9127 17.1675C12.2112 16.2038 16.9145 12.9681 20.9704 13.412C22.4096 13.5709 23.6275 14.192 24.6019 15.2518C23.3951 15.7011 22.5163 16.8235 22.4238 18.1621ZM28.6829 5.6207C28.6488 5.63774 28.7561 5.5657 27.895 6.17737C27.3225 6.5857 26.89 7.17945 26.6775 7.85028C24.5709 14.5877 24.6059 14.2145 24.6617 14.4093C24.4584 14.2222 24.2494 14.0458 24.0293 13.8898L26.0862 6.73362C26.2566 6.1407 26.6329 5.62487 27.145 5.2807L28.1604 4.5957C28.842 4.25235 29.3582 5.27656 28.6829 5.6207Z" fill="#420516"/>
<path id="Vector_2" d="M9.2648 18.3706C8.7748 18.3706 8.37646 18.7689 8.37646 19.2589C8.37646 19.7489 8.7748 20.1477 9.2648 20.1477C9.7548 20.1477 10.1535 19.7489 10.1535 19.2589C10.1535 18.7689 9.7548 18.3706 9.2648 18.3706ZM9.2648 19.5077C9.12771 19.5077 9.01646 19.396 9.01646 19.2589C9.01646 19.1219 9.12771 19.0106 9.2648 19.0106C9.40188 19.0106 9.51355 19.1219 9.51355 19.2589C9.51355 19.396 9.40188 19.5077 9.2648 19.5077Z" fill="#420516"/>
<path id="Vector_3" d="M25.7678 19.4508C26.3499 19.4508 26.8237 18.977 26.8237 18.3949C26.8237 17.8129 26.3499 17.3391 25.7678 17.3391C25.1857 17.3391 24.7124 17.8129 24.7124 18.3949C24.7124 18.977 25.1857 19.4508 25.7678 19.4508ZM25.7678 17.9791C25.997 17.9791 26.1837 18.1658 26.1837 18.3949C26.1837 18.6241 25.997 18.8108 25.7678 18.8108C25.5387 18.8108 25.3524 18.6241 25.3524 18.3949C25.3524 18.1658 25.5387 17.9791 25.7678 17.9791Z" fill="#420516"/>
<path id="Vector_4" d="M18.5895 14.5061C18.4129 14.5061 18.2695 14.6494 18.2695 14.8261V15.8274C18.2695 16.004 18.4129 16.1474 18.5895 16.1474C18.7662 16.1474 18.9095 16.004 18.9095 15.8274V14.8261C18.9095 14.6494 18.7662 14.5061 18.5895 14.5061Z" fill="#420516"/>
<path id="Vector_5" d="M17.0563 14.7148C16.8797 14.7148 16.7363 14.8582 16.7363 15.0348V16.0361C16.7363 16.2128 16.8797 16.3561 17.0563 16.3561C17.233 16.3561 17.3763 16.2128 17.3763 16.0361V15.0348C17.3763 14.8582 17.233 14.7148 17.0563 14.7148Z" fill="#420516"/>
<path id="Vector_6" d="M15.5138 15.0537C15.3372 15.0537 15.1938 15.197 15.1938 15.3737V16.3745C15.1938 16.5512 15.3372 16.6945 15.5138 16.6945C15.6905 16.6945 15.8338 16.5512 15.8338 16.3745V15.3737C15.8338 15.197 15.6905 15.0537 15.5138 15.0537Z" fill="#420516"/>
<path id="Vector_7" d="M4.15996 24.9707C4.15496 25.1469 4.29413 25.2944 4.4708 25.2994C4.47371 25.2999 4.47705 25.2999 4.47996 25.2999C4.65246 25.2999 4.79455 25.1628 4.79996 24.9894C4.80246 24.894 4.8433 23.1974 4.24996 21.9286C4.69496 22.2544 5.26205 22.799 5.91038 23.7082C6.01246 23.8519 6.21246 23.8861 6.35663 23.7828C6.50038 23.6803 6.53413 23.4807 6.43121 23.3365C4.64663 20.8319 3.34079 20.7965 3.20163 20.8024C2.89093 20.8126 2.77545 21.2163 3.03455 21.389C4.0233 22.0461 4.18205 24.1974 4.15996 24.9707Z" fill="#420516"/>
<path id="Vector_8" d="M18.0174 27.0644C18.1561 27.0644 18.2836 26.974 18.3245 26.834C18.3478 26.7548 18.5366 26.0107 18.0382 24.3036C17.9886 24.134 17.812 24.0361 17.6416 24.0861C17.472 24.1357 17.3745 24.3132 17.4241 24.4827C17.8632 25.9882 17.7141 26.639 17.7091 26.659C17.6524 26.8635 17.8072 27.0644 18.0174 27.0644Z" fill="#420516"/>
<path id="Vector_9" d="M28.6694 20.9252L28.3394 23.3348C28.3156 23.5098 28.4381 23.671 28.6131 23.6952C28.7841 23.7196 28.949 23.5993 28.9735 23.4214L29.3035 21.0119C29.3273 20.8369 29.2048 20.6756 29.0298 20.6514C28.8581 20.6252 28.6935 20.7498 28.6694 20.9252Z" fill="#420516"/>
<path id="Vector_10" d="M30.5482 19.871C30.3666 19.8548 30.2161 19.9839 30.1995 20.1598L29.8691 23.6785C29.8519 23.8638 29.9967 24.0285 30.1882 24.0285C30.3516 24.0285 30.4907 23.9043 30.5066 23.7385L30.837 20.2198C30.8532 20.0439 30.7241 19.8877 30.5482 19.871Z" fill="#420516"/>
<path id="Vector_11" d="M15.457 6.6173C15.6199 6.54855 15.6961 6.36063 15.6278 6.19813L15.1595 5.0873C15.0907 4.92396 14.9016 4.84813 14.7403 4.91646C14.5774 4.98521 14.5011 5.17313 14.5695 5.33563L15.0378 6.44646C15.1075 6.61157 15.297 6.6849 15.457 6.6173Z" fill="#420516"/>
<path id="Vector_12" d="M12.7153 5.7919C12.5599 5.70898 12.3657 5.76606 12.2815 5.92148C12.1978 6.0769 12.2557 6.27106 12.4111 6.35523C14.3773 7.4015 14.2882 7.4044 14.434 7.4044C14.7661 7.4044 14.8774 6.96028 14.5865 6.80273L12.7153 5.7919Z" fill="#420516"/>
<path id="Vector_13" d="M16.2035 3.08196C16.0285 3.10487 15.9048 3.26529 15.9281 3.44071L16.279 6.11529C16.3024 6.2964 16.4711 6.41521 16.6377 6.39071C16.8127 6.36779 16.9365 6.20737 16.9131 6.03196L16.5623 3.35737C16.5398 3.18196 16.3794 3.05404 16.2035 3.08196Z" fill="#420516"/>
<path id="Vector_14" d="M29.5377 28.3315H4.48016C4.30349 28.3315 4.16016 28.4749 4.16016 28.6515C4.16016 28.8282 4.30349 28.9715 4.48016 28.9715H29.5377C29.7143 28.9715 29.8577 28.8282 29.8577 28.6515C29.8577 28.4749 29.7143 28.3315 29.5377 28.3315Z" fill="#420516"/>
<path id="Vector_15" d="M5.31252 19.6182C5.17002 19.5128 4.97002 19.5428 4.8646 19.6845C4.7596 19.8265 4.78919 20.027 4.93085 20.1324C5.33794 20.4345 5.60419 20.9165 5.64252 21.4215C5.65526 21.5871 5.79479 21.7266 5.98585 21.7165C6.1621 21.7032 6.29419 21.5495 6.28085 21.3732C6.22835 20.6853 5.86627 20.0295 5.31252 19.6182Z" fill="#420516"/>
<path id="Vector_16" d="M15.1278 26.9591C15.2298 27.1033 15.429 27.1375 15.574 27.0362C15.7182 26.9341 15.7528 26.7346 15.6511 26.59C15.2456 26.0155 14.9813 25.3744 14.9132 24.6912C14.8889 24.4405 14.5953 24.3145 14.3961 24.4721C14.0419 24.7533 13.7707 25.0825 13.5907 25.435L12.7798 22.7816C12.6981 22.5122 12.3225 22.4678 12.189 22.7291C11.9998 23.0991 11.689 23.8112 11.6465 24.5625C11.359 24.2516 11.0115 23.9596 10.5328 23.7691C10.2521 23.6561 9.98308 23.9662 10.1394 24.2296C10.357 24.5972 10.5066 25.5554 10.6798 26.275C9.65988 25.5093 8.55307 24.4861 7.20818 24.3879C7.04485 24.38 6.90068 24.4879 6.87026 24.6479C6.84026 24.8079 6.93526 24.965 7.09068 25.0129C8.40796 25.4184 8.72829 26.3491 9.32776 27.4166C9.41337 27.569 9.60687 27.6261 9.7636 27.5391C9.91776 27.4525 9.97235 27.2575 9.8861 27.1033C9.67687 26.7299 9.50426 26.3716 9.28068 26.0071C9.89894 26.4656 10.522 27.0084 11.1328 27.3458C11.4146 27.504 11.7291 27.1833 11.5623 26.9025C11.3428 26.5315 11.194 25.5651 11.0161 24.8333C11.3753 25.1735 11.6783 25.6436 12.0361 26.0229C12.1515 26.1454 12.3411 26.1575 12.4703 26.0521C12.6007 25.9466 12.6273 25.7587 12.5319 25.6212C12.1723 25.1016 12.2615 24.3933 12.4315 23.8312C12.465 23.941 13.4198 27.0677 13.4348 27.1158C13.489 27.2833 13.6661 27.3758 13.8353 27.3229C14.0028 27.27 14.0969 27.0921 14.0457 26.9241C14.0445 26.8815 13.7379 26.1821 14.3857 25.3758C14.5297 25.9471 14.7911 26.4812 15.1278 26.9591Z" fill="#420516"/>
<path id="Vector_17" d="M25.3485 26.9036C25.229 27.034 25.2377 27.2365 25.3677 27.3561C25.4988 27.4757 25.7001 27.4665 25.8202 27.3369C26.5972 26.49 27.1815 25.4813 27.4985 24.3623C27.5595 24.149 27.3876 23.9331 27.1561 23.9569C25.8633 24.0975 25.2053 25.2003 24.4994 26.0194C24.6258 25.3357 24.7342 24.4606 24.9236 24.1094C25.0682 23.8415 24.7901 23.542 24.5127 23.6644C24.0415 23.8723 23.7065 24.1769 23.4319 24.4982C23.3586 23.7478 23.0169 23.0457 22.8119 22.6823C22.6732 22.4365 22.2971 22.4769 22.2236 22.759L21.5269 25.4365C21.3323 25.0903 21.0469 24.7711 20.6815 24.5032C20.5381 24.3973 20.3381 24.4298 20.2344 24.5719C20.1298 24.7144 20.1606 24.9148 20.3031 25.019C20.9965 25.5278 21.3098 26.2236 21.1486 26.8903L21.1348 26.9436C21.0906 27.1136 21.1915 27.2873 21.3615 27.3332C21.534 27.3803 21.7061 27.2786 21.7527 27.1094C21.7657 27.0639 22.6041 23.8377 22.6156 23.7932C22.8098 24.3494 22.9298 25.0548 22.5923 25.5873C22.383 25.9174 22.8435 26.2659 23.104 25.969C23.4449 25.578 23.7263 25.0981 24.074 24.7423C23.9265 25.493 23.8181 26.4582 23.6156 26.8336C23.4617 27.1199 23.7847 27.4277 24.0623 27.2598C24.584 26.9457 24.9765 26.4578 25.3561 25.9857C25.7698 25.4711 26.1665 24.9782 26.7002 24.7369C26.6106 24.9702 26.5073 25.1998 26.3915 25.4223C26.1152 25.9527 25.7644 26.4511 25.3485 26.9036Z" fill="#420516"/>
</g>
</g>
</g>
</svg>
